<?xml version="1.0" standalone="no"?><!DOCTYPE svg PUBLIC "-//W3C//DTD SVG 1.1//EN" "http://www.w3.org/Graphics/SVG/1.1/DTD/svg11.dtd"><svg t="1527261618338" class="icon" style="" viewBox="0 0 1024 1024" version="1.1" xmlns="http://www.w3.org/2000/svg" p-id="3604" xmlns:xlink="http://www.w3.org/1999/xlink" width="200" height="200"><defs><style type="text/css"></style></defs><path d="M320.768 792.32v-21.568c18.176-4.672 30.336-9.92 36.544-15.616 6.144-5.696 10.176-13.888 12.096-24.448s2.88-26.688 2.88-48.448v-380.8c0-20.224-0.768-35.008-2.176-44.224-1.472-9.216-3.904-16.448-7.296-21.568-3.392-5.12-7.872-9.216-13.44-12.352-5.568-3.072-15.104-6.528-28.608-10.304v-21.568H561.6c46.656 0 84.16 4.992 112.512 14.976 28.352 9.984 49.344 24.768 63.168 44.224 13.824 19.52 20.672 44.672 20.672 75.52 0 25.536-4.928 47.68-14.72 66.496-9.856 18.816-22.656 34.368-38.528 46.656-15.872 12.352-36.224 23.744-61.184 34.368v3.968c39.936 12.032 70.144 30.592 90.688 55.68 20.544 25.088 30.848 54.976 30.848 89.6 0 39.936-8.896 72.512-26.624 97.728-17.792 25.216-42.624 43.52-74.624 54.784-32 11.328-70.72 16.96-116.224 16.96H320.768z m210.88-331.456c44.608 0 78.72-10.752 102.4-32.384 23.616-21.568 35.456-52.928 35.456-94.016 0-20.224-3.328-37.056-9.92-50.432-6.592-13.312-15.744-23.936-27.328-31.872s-25.28-13.568-41.152-16.96c-15.872-3.392-33.024-5.056-51.52-5.056-11.136 0-25.792 0.32-44.032 0.896-18.176 0.576-31.872 1.152-40.96 1.792v228.032h77.056z m-76.992 289.664c21.44 2.048 45.376 3.072 71.744 3.072 38.464 0 68.288-4.864 89.6-14.528 21.312-9.664 36.672-24 46.208-42.944 9.536-18.944 14.272-42.624 14.272-71.104 0-28.48-5.184-51.968-15.616-70.464-10.432-18.496-26.496-32.256-48.192-41.408-21.696-9.024-51.648-13.568-89.792-13.568h-68.224v250.944z" fill="" p-id="3605"></path></svg>