<?xml version="1.0" standalone="no"?><!DOCTYPE svg PUBLIC "-//W3C//DTD SVG 1.1//EN" "http://www.w3.org/Graphics/SVG/1.1/DTD/svg11.dtd"><svg t="1527262691411" class="icon" style="" viewBox="0 0 1024 1024" version="1.1" xmlns="http://www.w3.org/2000/svg" p-id="4223" xmlns:xlink="http://www.w3.org/1999/xlink" width="200" height="200"><defs><style type="text/css"></style></defs><path d="M255.999 85.332C255.999 38.205 294.084 0 341.124 0h597.749c47.015 0 85.125 37.877 85.125 85.332 0 47.13-38.085 85.335-85.125 85.335H341.124c-47.015 0-85.125-37.877-85.125-85.335z m0 426.667c0-47.127 38.085-85.332 85.125-85.332h597.749c47.015 0 85.125 37.875 85.125 85.332 0 47.13-38.085 85.33-85.125 85.33H341.124c-47.015-0.001-85.125-37.871-85.125-85.33z m0 426.668c0-47.13 38.085-85.34 85.125-85.34h597.749c47.015 0 85.125 37.88 85.125 85.34 0 47.125-38.085 85.33-85.125 85.33H341.124c-47.015 0-85.125-37.88-85.125-85.33zM0 510.291c0-47.127 38.085-85.332 85.125-85.332h9.595c47.015 0 85.125 37.877 85.125 85.332 0 47.127-38.085 85.337-85.125 85.337h-9.595C38.11 595.628 0 557.748 0 510.291z m0 0c0-47.127 38.085-85.332 85.125-85.332h9.595c47.015 0 85.125 37.877 85.125 85.332 0 47.127-38.085 85.337-85.125 85.337h-9.595C38.11 595.628 0 557.748 0 510.291zM0 85.332C0 38.205 38.085 0 85.125 0h9.595c47.015 0 85.125 37.877 85.125 85.332 0 47.127-38.085 85.337-85.125 85.337h-9.595C38.11 170.669 0 132.79 0 85.332z m0 853.326c0-47.125 38.085-85.33 85.125-85.33h9.595c47.015 0 85.125 37.88 85.125 85.33 0 47.13-38.085 85.34-85.125 85.34h-9.595C38.11 1023.997 0 986.117 0 938.658z" fill="" p-id="4224"></path></svg>