<?xml version="1.0" standalone="no"?><!DOCTYPE svg PUBLIC "-//W3C//DTD SVG 1.1//EN" "http://www.w3.org/Graphics/SVG/1.1/DTD/svg11.dtd"><svg t="1527256803695" class="icon" style="" viewBox="0 0 1024 1024" version="1.1" xmlns="http://www.w3.org/2000/svg" p-id="2363" xmlns:xlink="http://www.w3.org/1999/xlink" width="200" height="200"><defs><style type="text/css"></style></defs><path d="M984.752 532.72L790.432 726.8c-12 11.968-31.456 11.968-43.456 0-11.984-11.984-11.984-31.392 0-43.36l172.64-172.4-172.64-172.384c-11.984-11.984-11.984-31.392 0-43.36 12-11.984 31.456-11.984 43.456 0l194.32 194.064c12 11.984 12 31.392 0 43.36zM347.776 911.568c-8.832 15.424-28.4 20.72-43.712 11.808-15.312-8.896-20.544-28.624-11.712-44.048l384-766.896c8.832-15.44 28.4-20.72 43.712-11.808 15.312 8.896 20.544 28.624 11.712 44.048l-384 766.896zM277.152 726.8c-12 11.968-31.456 11.968-43.456 0L39.36 532.72c-11.984-11.968-11.984-31.376 0-43.36l194.336-194.064c12-11.984 31.456-11.984 43.456 0 11.984 11.968 11.984 31.376 0 43.36L104.528 511.04l172.624 172.4c11.984 11.968 11.984 31.376 0 43.36z" fill="" p-id="2364"></path></svg>