<?xml version="1.0" standalone="no"?><!DOCTYPE svg PUBLIC "-//W3C//DTD SVG 1.1//EN" "http://www.w3.org/Graphics/SVG/1.1/DTD/svg11.dtd"><svg t="1527256818012" class="icon" style="" viewBox="0 0 1024 1024" version="1.1" xmlns="http://www.w3.org/2000/svg" p-id="2488" xmlns:xlink="http://www.w3.org/1999/xlink" width="200" height="200"><defs><style type="text/css"></style></defs><path d="M379.064 793.257c-20.447 20.383-53.6 20.383-74.113 0l-74.18-74.18c-20.447-20.51-20.447-53.666 0-74.177l95.916-95.853L416.734 459c-40.184-23.737-92.627-18.577-127.137 15.87l-132.94 133.004c-40.96 40.896-40.96 107.333 0 148.23L267.86 867.306c40.96 41.025 107.334 41.025 148.295 0l132.94-132.876c34.51-34.447 39.543-86.951 15.932-127.201L379.064 793.257z m488.292-525.445L756.152 156.608c-40.96-40.894-107.334-40.894-148.294 0l-132.94 133.007c-34.51 34.444-39.54 86.82-15.933 127.07L644.95 230.787c20.446-20.513 53.603-20.513 74.114 0l74.114 74.178c20.514 20.513 20.514 53.666 0 74.18l-185.9 185.898c40.187 23.609 92.628 18.576 127.135-15.997l132.943-132.877c40.958-41.024 40.958-107.333 0-148.357z m-497.514 367.8l18.51 18.575c15.353 15.351 40.25 15.351 55.603 0l210.217-210.28c15.414-15.353 15.414-40.25 0-55.603l-18.513-18.577c-15.353-15.35-40.25-15.35-55.604 0l-210.213 210.28c-15.416 15.354-15.416 40.25 0 55.604z m0 0" fill="" p-id="2489"></path></svg>