<?xml version="1.0" standalone="no"?><!DOCTYPE svg PUBLIC "-//W3C//DTD SVG 1.1//EN" "http://www.w3.org/Graphics/SVG/1.1/DTD/svg11.dtd"><svg t="1527261623673" class="icon" style="" viewBox="0 0 1024 1024" version="1.1" xmlns="http://www.w3.org/2000/svg" p-id="3729" xmlns:xlink="http://www.w3.org/1999/xlink" width="200" height="200"><defs><style type="text/css"></style></defs><path d="M517.888 693.376c-3.456 18.688-5.376 32.448-5.76 41.088-0.32 8.64 0.512 15.488 2.496 20.48s5.568 9.216 10.688 12.544 13.824 6.72 26.112 10.048l-3.776 20.48H369.984l3.776-20.48c18.24-4.48 30.848-9.408 37.696-14.912 6.912-5.44 12.16-13.184 15.872-23.296 3.712-10.048 7.424-25.408 11.328-46.08l67.392-362.56c3.584-19.328 5.504-33.28 5.76-42.112 0.192-8.768-0.832-15.616-3.136-20.544-2.304-4.864-5.888-8.768-10.624-11.712-4.8-2.944-13.376-6.208-25.536-9.856l3.776-20.48h177.728l-3.776 20.48c-12.928 3.072-22.464 6.144-28.48 9.216-6.08 3.072-11.136 6.912-15.232 11.52s-7.744 11.52-11.008 20.736c-3.264 9.152-6.72 23.424-10.304 42.688l-67.328 362.752z" fill="" p-id="3730"></path></svg>