<?xml version="1.0" standalone="no"?><!DOCTYPE svg PUBLIC "-//W3C//DTD SVG 1.1//EN" "http://www.w3.org/Graphics/SVG/1.1/DTD/svg11.dtd"><svg t="1527256870806" class="icon" style="" viewBox="0 0 1024 1024" version="1.1" xmlns="http://www.w3.org/2000/svg" p-id="3135" xmlns:xlink="http://www.w3.org/1999/xlink" width="200" height="200"><defs><style type="text/css"></style></defs><path d="M921.6 150.4c30 0 54.4 24.4 54.4 54.4v614.4c0 30-24.4 54.4-54.4 54.4H102.4c-30 0-54.4-24.4-54.4-54.4V204.8c0-30 24.4-54.4 54.4-54.4h819.2m0-48H102.4C45.856 102.4 0 148.256 0 204.8v614.4c0 56.544 45.856 102.4 102.4 102.4h819.2c56.544 0 102.4-45.856 102.4-102.4V204.8c0-56.544-45.856-102.4-102.4-102.4z" fill="" p-id="3136"></path><path d="M270.224 310.32c0 47.12-38.208 85.328-85.328 85.328-47.12 0-85.328-38.208-85.328-85.328 0-47.136 38.208-85.328 85.328-85.328 47.12 0 85.328 38.192 85.328 85.328zM78.928 793.6H940.8L708.272 292.272 473.6 650.672 311.472 499.216z" fill="" p-id="3137"></path></svg>